<?xml version="1.0" encoding="UTF-8" standalone="no"?>
<!DOCTYPE svg PUBLIC "-//W3C//DTD SVG 1.1//EN" "http://www.w3.org/Graphics/SVG/1.1/DTD/svg11.dtd">
<svg width="100%" height="100%" viewBox="0 0 300 474" version="1.1" xmlns="http://www.w3.org/2000/svg" xmlns:xlink="http://www.w3.org/1999/xlink" xml:space="preserve" xmlns:serif="http://www.serif.com/" style="fill-rule:evenodd;clip-rule:evenodd;stroke-linejoin:round;stroke-miterlimit:2;">
    <g transform="matrix(7.55778,0,0,7.55778,138.927,48.5738)">
        <path d="M-3.895,-6.427L-12.314,-6.427C-15.665,-6.427 -18.382,-3.71 -18.382,-0.359L-18.382,8.061C-18.382,11.412 -15.665,14.128 -12.314,14.128L-3.895,14.128C-0.543,14.128 2.173,11.412 2.173,8.061L2.173,-0.359C2.173,-3.71 -0.543,-6.427 -3.895,-6.427Z" style="fill:white;fill-rule:nonzero;"/>
    </g>
    <g transform="matrix(7.55778,0,0,7.55778,283.577,211.824)">
        <path d="M-3.895,-6.427L-12.314,-6.427C-15.665,-6.427 -18.382,-3.71 -18.382,-0.359L-18.382,8.061C-18.382,11.412 -15.665,14.128 -12.314,14.128L-3.895,14.128C-0.543,14.128 2.173,11.412 2.173,8.061L2.173,-0.359C2.173,-3.71 -0.543,-6.427 -3.895,-6.427Z" style="fill:white;fill-rule:nonzero;"/>
    </g>
    <g transform="matrix(7.55778,0,0,7.55778,138.927,366.902)">
        <path d="M-3.895,-6.427L-12.314,-6.427C-15.665,-6.427 -18.382,-3.71 -18.382,-0.359L-18.382,8.061C-18.382,11.412 -15.665,14.128 -12.314,14.128L-3.895,14.128C-0.543,14.128 2.173,11.412 2.173,8.061L2.173,-0.359C2.173,-3.71 -0.543,-6.427 -3.895,-6.427Z" style="fill:white;fill-rule:nonzero;"/>
    </g>
</svg>
